<?xml version="1.0" encoding="utf-8"?>
<!-- Generator: Adobe Illustrator 21.0.0, SVG Export Plug-In . SVG Version: 6.00 Build 0)  -->
<svg version="1.1" id="Слой_1" xmlns="http://www.w3.org/2000/svg" xmlns:xlink="http://www.w3.org/1999/xlink" x="0px" y="0px"
	 viewBox="0 0 104.5 36.3" style="enable-background:new 0 0 104.5 36.3;" xml:space="preserve">
<style type="text/css">
	.st0{fill:url(#SVGID_1_);}
	.st1{fill:url(#SVGID_2_);}
</style>
<g>
	<g>
		<path d="M29.9,13V7h15.1v3.1L36.6,20h4.3v-2.9h4.1V23H29.8v-3l8.4-10h-4.4v3H29.9z"/>
		<path d="M52.5,23h-6.4v-3h1v-5.5h-1v-3h5.3V20h1.1V23z M46.8,8.2c0-0.3,0.1-0.5,0.2-0.8c0.1-0.3,0.3-0.5,0.5-0.8
			c0.2-0.2,0.5-0.4,0.8-0.6c0.3-0.2,0.7-0.2,1.1-0.2c0.4,0,0.8,0.1,1.1,0.2c0.3,0.2,0.6,0.3,0.8,0.6c0.2,0.2,0.4,0.5,0.5,0.8
			c0.1,0.3,0.2,0.6,0.2,0.8c0,0.7-0.2,1.2-0.7,1.6c-0.4,0.5-1.1,0.7-1.9,0.7c-0.4,0-0.7-0.1-1-0.2c-0.3-0.2-0.6-0.3-0.8-0.6
			c-0.2-0.2-0.4-0.5-0.5-0.8C46.8,8.7,46.8,8.5,46.8,8.2z"/>
		<path d="M60.7,19.3c0-0.1,0-0.3,0.1-0.5c0.1-0.2,0.1-0.4,0.2-0.6c0.1-0.2,0.2-0.5,0.2-0.7c0.1-0.3,0.2-0.5,0.3-0.7l1.1-2.3h-1.2
			v-2.9h6v2.9H66L62.1,23h-3.6l-4.3-8.6h-1.1v-2.9h7v2.9H59l1.1,2.4c0.2,0.5,0.3,0.9,0.4,1.3C60.6,18.7,60.6,19,60.7,19.3
			C60.7,19.3,60.7,19.3,60.7,19.3z"/>
		<path d="M79.3,21.5c-0.9,0.7-1.7,1.2-2.7,1.5c-0.9,0.3-2,0.5-3.2,0.5c-0.7,0-1.4-0.1-2.2-0.4c-0.7-0.3-1.4-0.6-1.9-1.1
			c-0.6-0.5-1-1.1-1.4-1.9c-0.4-0.8-0.6-1.7-0.6-2.8c0-0.9,0.2-1.8,0.5-2.5c0.3-0.7,0.8-1.4,1.3-1.9c0.6-0.5,1.2-0.9,1.9-1.2
			s1.5-0.4,2.4-0.4c0.9,0,1.8,0.2,2.5,0.4c0.7,0.3,1.3,0.7,1.8,1.1c0.5,0.5,0.9,1.1,1.1,1.7c0.3,0.7,0.4,1.4,0.4,2.2
			c0,0.3,0,0.6-0.1,0.9c-0.1,0.3-0.1,0.6-0.2,0.8h-7.2c0.1,0.2,0.1,0.4,0.2,0.6s0.2,0.4,0.4,0.6c0.2,0.2,0.4,0.4,0.7,0.5
			c0.3,0.2,0.7,0.2,1.2,0.2c0.2,0,0.4,0,0.7,0c0.3,0,0.5-0.1,0.8-0.2c0.3-0.1,0.6-0.2,0.9-0.3c0.3-0.2,0.6-0.4,0.9-0.6L79.3,21.5z
			 M73.6,14.3c-0.4,0-0.6,0.1-0.9,0.2c-0.2,0.2-0.4,0.3-0.5,0.5c-0.2,0.2-0.2,0.4-0.3,0.6c-0.1,0.2-0.1,0.4-0.1,0.5h3.5
			c0-0.2,0-0.4-0.1-0.7c-0.1-0.2-0.1-0.4-0.3-0.6c-0.1-0.2-0.3-0.3-0.5-0.4C74.3,14.4,73.9,14.3,73.6,14.3z"/>
		<path d="M86.7,23h-6.5v-3h1v-5.5h-1v-3h4.3l0.7,1.5c0.2-0.3,0.3-0.5,0.5-0.8c0.2-0.3,0.4-0.5,0.7-0.7c0.3-0.2,0.6-0.4,1-0.5
			c0.4-0.1,0.9-0.2,1.5-0.2v4.1c-1,0-1.8,0.2-2.4,0.5c-0.6,0.4-0.8,1-0.8,2v2.4h1.1L86.7,23L86.7,23z"/>
		<path d="M97.5,8.8h-1.1v-3h5.7V20h1.1v3h-5.3l-0.4-0.9c-0.1,0.1-0.2,0.2-0.4,0.3c-0.2,0.1-0.4,0.2-0.6,0.4
			c-0.3,0.1-0.5,0.2-0.9,0.3c-0.3,0.1-0.7,0.1-1.1,0.1c-0.8,0-1.5-0.2-2.2-0.5c-0.7-0.3-1.2-0.8-1.7-1.3c-0.5-0.6-0.8-1.2-1.1-1.9
			c-0.3-0.7-0.4-1.5-0.4-2.3c0-0.9,0.2-1.7,0.5-2.4c0.3-0.7,0.7-1.3,1.2-1.8s1.1-0.9,1.7-1.2c0.7-0.3,1.3-0.4,2-0.4
			c0.8,0,1.4,0.1,1.9,0.3s0.8,0.4,1,0.6L97.5,8.8L97.5,8.8z M94.2,17.1c0,0.4,0.1,0.7,0.1,1c0.1,0.4,0.2,0.6,0.3,0.9
			c0.2,0.3,0.3,0.5,0.5,0.7c0.2,0.2,0.4,0.3,0.7,0.3c0.4,0,0.8-0.3,1.1-0.7c0.3-0.5,0.5-1.1,0.5-1.9c0-0.4-0.1-0.8-0.1-1.2
			c-0.1-0.4-0.2-0.7-0.3-1c-0.2-0.3-0.3-0.5-0.5-0.7c-0.2-0.2-0.4-0.2-0.7-0.2c-0.5,0-0.9,0.3-1.2,0.8
			C94.4,15.6,94.2,16.3,94.2,17.1z"/>
	</g>
	<g>
		<g>
			<path d="M29.8,29.8l0.6,0.1c0,0.2,0.1,0.3,0.2,0.4c0.2,0.1,0.4,0.2,0.6,0.2c0.3,0,0.5-0.1,0.6-0.2c0.2-0.1,0.3-0.3,0.3-0.5
				c0.1-0.1,0.1-0.4,0.1-0.7c-0.3,0.3-0.6,0.5-0.9,0.5c-0.5,0-0.8-0.2-1.1-0.5c-0.3-0.3-0.4-0.7-0.4-1.2c0-0.3,0.1-0.6,0.2-0.9
				c0.1-0.3,0.3-0.5,0.5-0.6s0.5-0.2,0.8-0.2c0.4,0,0.7,0.2,1,0.5v-0.4h0.5v2.9c0,0.5-0.1,0.9-0.2,1.1c-0.1,0.2-0.3,0.4-0.5,0.5
				c-0.2,0.1-0.5,0.2-0.9,0.2c-0.4,0-0.7-0.1-1-0.3C29.9,30.5,29.8,30.2,29.8,29.8z M30.3,27.8c0,0.5,0.1,0.8,0.3,1s0.4,0.3,0.7,0.3
				s0.5-0.1,0.7-0.3c0.2-0.2,0.3-0.5,0.3-0.9s-0.1-0.7-0.3-0.9c-0.2-0.2-0.4-0.3-0.7-0.3s-0.5,0.1-0.7,0.3
				C30.4,27.1,30.3,27.4,30.3,27.8z"/>
			<path d="M34.3,29.5v-3.3h0.5v0.5c0.2-0.3,0.3-0.4,0.4-0.5c0.1-0.1,0.3-0.1,0.4-0.1c0.2,0,0.4,0.1,0.6,0.2l-0.2,0.5
				c-0.2-0.1-0.3-0.1-0.4-0.1c-0.1,0-0.3,0.1-0.4,0.1C35,26.9,35,27,34.9,27.2c-0.1,0.2-0.1,0.4-0.1,0.7v1.7L34.3,29.5L34.3,29.5z"
				/>
			<path d="M37,27.9c0-0.6,0.2-1.1,0.5-1.4c0.3-0.3,0.6-0.4,1.1-0.4s0.8,0.2,1.1,0.5c0.3,0.3,0.5,0.7,0.5,1.2c0,0.4-0.1,0.8-0.2,1
				c-0.2,0.3-0.3,0.5-0.6,0.6c-0.3,0.2-0.5,0.2-0.8,0.2c-0.5,0-0.9-0.2-1.1-0.5C37.2,28.9,37,28.4,37,27.9z M37.6,27.9
				c0,0.4,0.1,0.8,0.3,1c0.2,0.2,0.4,0.3,0.7,0.3c0.3,0,0.5-0.1,0.7-0.3s0.3-0.6,0.3-1s-0.1-0.7-0.3-0.9c-0.2-0.2-0.4-0.3-0.7-0.3
				s-0.5,0.1-0.7,0.3C37.7,27.1,37.6,27.4,37.6,27.9z"/>
			<path d="M43.8,29.5V29c-0.3,0.4-0.6,0.6-1.1,0.6c-0.2,0-0.4-0.1-0.6-0.1c-0.2-0.1-0.3-0.2-0.4-0.3c-0.1-0.1-0.2-0.3-0.2-0.4
				c0-0.1-0.1-0.3-0.1-0.5v-2h0.6v1.8c0,0.3,0,0.5,0.1,0.6c0.1,0.2,0.1,0.3,0.2,0.4s0.3,0.1,0.4,0.1c0.2,0,0.3-0.1,0.5-0.2
				c0.2-0.1,0.3-0.2,0.3-0.4s0.1-0.4,0.1-0.7v-1.8h0.6v3.3L43.8,29.5L43.8,29.5z"/>
			<path d="M46,30.8v-4.6h0.5v0.4c0.1-0.2,0.3-0.3,0.4-0.4c0.2-0.1,0.4-0.1,0.6-0.1c0.3,0,0.6,0.1,0.8,0.2c0.2,0.2,0.4,0.4,0.5,0.6
				c0.1,0.3,0.2,0.6,0.2,0.9c0,0.4-0.1,0.7-0.2,0.9c-0.1,0.3-0.3,0.5-0.5,0.6c-0.3,0.2-0.5,0.2-0.7,0.2c-0.2,0-0.4-0.1-0.5-0.1
				c-0.2-0.1-0.3-0.2-0.4-0.3v1.6C46.6,30.8,46,30.8,46,30.8z M46.5,27.9c0,0.4,0.1,0.8,0.3,1c0.2,0.2,0.4,0.3,0.6,0.3
				c0.3,0,0.5-0.1,0.7-0.3c0.2-0.2,0.3-0.6,0.3-1c0-0.4-0.1-0.8-0.3-1c-0.2-0.2-0.4-0.3-0.6-0.3c-0.3,0-0.5,0.1-0.7,0.4
				C46.5,27.1,46.5,27.4,46.5,27.9z"/>
			<path d="M55.2,28.5l0.6,0.1c-0.1,0.4-0.3,0.6-0.5,0.8c-0.3,0.2-0.6,0.3-1,0.3c-0.5,0-0.9-0.2-1.2-0.5c-0.3-0.3-0.4-0.7-0.4-1.3
				c0-0.6,0.2-1,0.4-1.3c0.3-0.3,0.7-0.5,1.1-0.5s0.8,0.2,1.1,0.5c0.3,0.3,0.4,0.7,0.4,1.3c0,0.1,0,0.1,0,0.2h-2.5
				c0,0.4,0.1,0.7,0.3,0.8c0.2,0.2,0.4,0.3,0.7,0.3c0.2,0,0.4-0.1,0.5-0.2C55,28.9,55.1,28.7,55.2,28.5z M53.3,27.5h1.8
				c0-0.3-0.1-0.5-0.2-0.6c-0.2-0.2-0.4-0.3-0.7-0.3c-0.3,0-0.5,0.1-0.7,0.3C53.5,27,53.4,27.2,53.3,27.5z"/>
			<path d="M57.2,29.5v-4.6h0.6v4.6H57.2z"/>
			<path d="M61.8,28.5l0.6,0.1c-0.1,0.4-0.3,0.6-0.5,0.8c-0.3,0.2-0.6,0.3-1,0.3c-0.5,0-0.9-0.2-1.2-0.5c-0.3-0.3-0.4-0.7-0.4-1.3
				c0-0.6,0.2-1,0.4-1.3c0.3-0.3,0.7-0.5,1.1-0.5s0.8,0.2,1.1,0.5c0.3,0.3,0.4,0.7,0.4,1.3c0,0.1,0,0.1,0,0.2h-2.5
				c0,0.4,0.1,0.7,0.3,0.8c0.2,0.2,0.4,0.3,0.7,0.3c0.2,0,0.4-0.1,0.5-0.2C61.5,28.9,61.7,28.7,61.8,28.5z M59.9,27.5h1.8
				c0-0.3-0.1-0.5-0.2-0.6c-0.2-0.2-0.4-0.3-0.7-0.3c-0.3,0-0.5,0.1-0.7,0.3C60,27,59.9,27.2,59.9,27.5z"/>
			<path d="M66,28.3l0.6,0.1c-0.1,0.4-0.2,0.7-0.5,0.9c-0.3,0.2-0.6,0.3-0.9,0.3c-0.5,0-0.8-0.2-1.1-0.5c-0.3-0.3-0.4-0.7-0.4-1.3
				c0-0.4,0.1-0.7,0.2-1c0.1-0.3,0.3-0.5,0.6-0.6c0.3-0.2,0.5-0.2,0.8-0.2c0.4,0,0.7,0.1,0.9,0.3c0.3,0.2,0.4,0.5,0.5,0.8L66,27.2
				c-0.1-0.2-0.2-0.4-0.3-0.5c-0.2-0.1-0.3-0.2-0.5-0.2c-0.3,0-0.5,0.1-0.7,0.3c-0.2,0.2-0.3,0.5-0.3,1c0,0.5,0.1,0.8,0.3,1
				c0.2,0.2,0.4,0.3,0.7,0.3c0.2,0,0.4-0.1,0.6-0.2C65.9,28.8,66,28.6,66,28.3z"/>
			<path d="M69.1,29l0.1,0.5c-0.2,0.1-0.3,0.1-0.4,0.1c-0.2,0-0.4-0.1-0.5-0.1s-0.2-0.2-0.3-0.3C68,29.1,68,28.9,68,28.6v-1.9h-0.4
				v-0.5H68v-0.8l0.6-0.4v1.2h0.6v0.5h-0.6v1.9c0,0.2,0,0.3,0.1,0.3c0,0.1,0.1,0.1,0.1,0.1c0.1,0.1,0.1,0.1,0.2,0.1
				C68.9,29.1,69,29,69.1,29z"/>
			<path d="M70.4,29.5v-3.3h0.5v0.5c0.2-0.3,0.3-0.4,0.4-0.5c0.1-0.1,0.3-0.1,0.4-0.1c0.2,0,0.4,0.1,0.6,0.2L72,26.9
				c-0.2-0.1-0.3-0.1-0.4-0.1c-0.1,0-0.3,0.1-0.4,0.1c-0.1,0.1-0.2,0.2-0.2,0.3c-0.1,0.2-0.1,0.4-0.1,0.7v1.7L70.4,29.5L70.4,29.5z"
				/>
			<path d="M73.1,27.9c0-0.6,0.2-1.1,0.5-1.4c0.3-0.3,0.6-0.4,1.1-0.4c0.5,0,0.8,0.2,1.1,0.5c0.3,0.3,0.5,0.7,0.5,1.2
				c0,0.4-0.1,0.8-0.2,1c-0.2,0.3-0.3,0.5-0.6,0.6c-0.3,0.2-0.5,0.2-0.8,0.2c-0.5,0-0.9-0.2-1.1-0.5C73.3,28.9,73.1,28.4,73.1,27.9z
				 M73.7,27.9c0,0.4,0.1,0.8,0.3,1c0.2,0.2,0.4,0.3,0.7,0.3c0.3,0,0.5-0.1,0.7-0.3c0.2-0.2,0.3-0.6,0.3-1s-0.1-0.7-0.3-0.9
				s-0.4-0.3-0.7-0.3s-0.5,0.1-0.7,0.3C73.8,27.1,73.7,27.4,73.7,27.9z"/>
			<path d="M82.4,28.3l0.6,0.1c-0.1,0.4-0.2,0.7-0.5,0.9c-0.3,0.2-0.6,0.3-0.9,0.3c-0.5,0-0.8-0.2-1.1-0.5c-0.3-0.3-0.4-0.7-0.4-1.3
				c0-0.4,0.1-0.7,0.2-1c0.1-0.3,0.3-0.5,0.6-0.6c0.3-0.2,0.5-0.2,0.8-0.2c0.4,0,0.7,0.1,0.9,0.3c0.3,0.2,0.4,0.5,0.5,0.8l-0.6,0.1
				c-0.1-0.2-0.2-0.4-0.3-0.5c-0.2-0.1-0.3-0.2-0.5-0.2c-0.3,0-0.5,0.1-0.7,0.3c-0.2,0.2-0.3,0.5-0.3,1c0,0.5,0.1,0.8,0.3,1
				s0.4,0.3,0.7,0.3c0.2,0,0.4-0.1,0.6-0.2C82.3,28.8,82.4,28.6,82.4,28.3z"/>
			<path d="M84,27.9c0-0.6,0.2-1.1,0.5-1.4c0.3-0.3,0.6-0.4,1.1-0.4c0.5,0,0.8,0.2,1.1,0.5c0.3,0.3,0.5,0.7,0.5,1.2
				c0,0.4-0.1,0.8-0.2,1c-0.2,0.3-0.3,0.5-0.6,0.6c-0.3,0.2-0.5,0.2-0.8,0.2c-0.5,0-0.9-0.2-1.1-0.5C84.2,28.9,84,28.4,84,27.9z
				 M84.7,27.9c0,0.4,0.1,0.8,0.3,1c0.2,0.2,0.4,0.3,0.7,0.3c0.3,0,0.5-0.1,0.7-0.3c0.2-0.2,0.3-0.6,0.3-1s-0.1-0.7-0.3-0.9
				c-0.2-0.2-0.4-0.3-0.7-0.3c-0.3,0-0.5,0.1-0.7,0.3C84.7,27.1,84.7,27.4,84.7,27.9z"/>
			<path d="M88.6,29.5v-3.3h0.5v0.5c0.3-0.4,0.6-0.6,1.1-0.6c0.2,0,0.4,0.1,0.6,0.1c0.2,0.1,0.3,0.2,0.4,0.3
				c0.1,0.1,0.2,0.3,0.2,0.4c0,0.1,0.1,0.3,0.1,0.6v2h-0.6v-2c0-0.3,0-0.4-0.1-0.5s-0.1-0.2-0.3-0.3c-0.1-0.1-0.3-0.1-0.4-0.1
				c-0.3,0-0.5,0.1-0.6,0.2c-0.2,0.2-0.3,0.5-0.3,0.9v1.8H88.6z"/>
			<path d="M94.2,29l0.1,0.5c-0.2,0.1-0.3,0.1-0.4,0.1c-0.2,0-0.4-0.1-0.5-0.1c-0.1-0.1-0.2-0.2-0.3-0.3c-0.1-0.1-0.1-0.3-0.1-0.7
				v-1.9h-0.4v-0.5h0.4v-0.8l0.6-0.4v1.2h0.6v0.5h-0.6v1.9c0,0.2,0,0.3,0.1,0.3c0,0.1,0.1,0.1,0.1,0.1C93.9,29,94,29,94.1,29
				C94,29.1,94.1,29,94.2,29z"/>
			<path d="M95.6,29.5v-3.3h0.5v0.5c0.2-0.3,0.3-0.4,0.4-0.5c0.1-0.1,0.3-0.1,0.4-0.1c0.2,0,0.4,0.1,0.6,0.2l-0.2,0.5
				c-0.2-0.1-0.3-0.1-0.4-0.1c-0.1,0-0.3,0.1-0.4,0.1c-0.1,0.1-0.2,0.2-0.2,0.3c-0.1,0.2-0.1,0.4-0.1,0.7v1.7L95.6,29.5L95.6,29.5z"
				/>
			<path d="M98.3,27.9c0-0.6,0.2-1.1,0.5-1.4c0.3-0.3,0.6-0.4,1.1-0.4c0.5,0,0.8,0.2,1.1,0.5c0.3,0.3,0.5,0.7,0.5,1.2
				c0,0.4-0.1,0.8-0.2,1c-0.2,0.3-0.3,0.5-0.6,0.6c-0.3,0.2-0.5,0.2-0.8,0.2c-0.5,0-0.9-0.2-1.1-0.5C98.4,28.9,98.3,28.4,98.3,27.9z
				 M98.8,27.9c0,0.4,0.1,0.8,0.3,1c0.2,0.2,0.4,0.3,0.7,0.3c0.3,0,0.5-0.1,0.7-0.3c0.2-0.2,0.3-0.6,0.3-1s-0.1-0.7-0.3-0.9
				c-0.2-0.2-0.4-0.3-0.7-0.3c-0.3,0-0.5,0.1-0.7,0.3C98.9,27.1,98.8,27.4,98.8,27.9z"/>
			<path d="M102.8,29.5v-4.6h0.6v4.6H102.8z"/>
		</g>
	</g>
</g>
<g>
	
		<linearGradient id="SVGID_1_" gradientUnits="userSpaceOnUse" x1="11.6206" y1="62.0157" x2="18.4511" y2="37.938" gradientTransform="matrix(1 0 0 -1 0 66.3333)">
		<stop  offset="0" style="stop-color:#000000"/>
		<stop  offset="0.385" style="stop-color:#A60000"/>
		<stop  offset="0.5055" style="stop-color:#DD0000"/>
		<stop  offset="1" style="stop-color:#FFCE00"/>
	</linearGradient>
	<path class="st0" d="M2.3,26.6c0.8,1.3,1.9,2.5,3.2,3.6l6.7-11.3l-6.8,2.7L23.5,4.1l0,0L26.7,1L25,2.2l0,0L10.5,12.3l9.4-8.9
		l-6-1.1l0,0l0,0l0,0l0,0L1.2,4.7v19.2C1.2,23.9,1.8,26.1,2.3,26.6C2.3,26.6,2.3,26.6,2.3,26.6z"/>
	
		<linearGradient id="SVGID_2_" gradientUnits="userSpaceOnUse" x1="9.7923" y1="61.497" x2="16.6228" y2="37.4193" gradientTransform="matrix(1 0 0 -1 0 66.3333)">
		<stop  offset="0" style="stop-color:#000000"/>
		<stop  offset="0.385" style="stop-color:#A60000"/>
		<stop  offset="0.5055" style="stop-color:#DD0000"/>
		<stop  offset="1" style="stop-color:#FFCE00"/>
	</linearGradient>
	<path class="st1" d="M17.2,16.7l6.5-2.3l-20,18.7v-0.1l-2.2,2.1L6.3,32l13.3-8.9L8.7,32.7c1.8,1.2,3.6,2.3,5.3,3.1l0,0l0,0l0,0l0,0
		c3.9-2,9.3-5.4,11.6-9.2l0,0c0.5-0.5,1.1-2.7,1.1-2.7V4.7l-2.4-0.5L17.2,16.7z"/>
</g>
</svg>
